<svg width="17" height="17" viewBox="0 0 17 17" fill="none" xmlns="http://www.w3.org/2000/svg">
<path d="M3.15 16.15C2.7 16 2.5 14.8 2.5 12.5C2.5 9.5 2.35 9.05 1.5 8.75C0.95 8.6 0.5 8.14999 0.5 7.79999C0.5 7.09999 8.10001 0 8.85001 0C9.60001 0 17 7.10001 17 7.85001C17 8.25001 16.55 8.70001 16 8.85001C15.1 9.10001 15 9.54999 15 12.55C15 14.45 14.85 16 14.65 16.05C14.4 16.05 13.5 16.15 12.65 16.3L11 16.5V13.95V11.45L8.89999 11.6L6.75 11.75V14C6.75 16.15 6.7 16.25 5.25 16.3C4.45 16.35 3.45 16.25 3.15 16.15Z" fill="#FF392B"/>
</svg>
